<?xml version="1.0" standalone="no"?>
<!DOCTYPE svg PUBLIC "-//W3C//DTD SVG 20010904//EN"
 "http://www.w3.org/TR/2001/REC-SVG-20010904/DTD/svg10.dtd">
<svg version="1.0" xmlns="http://www.w3.org/2000/svg"
 width="1078.000000pt" height="1078.000000pt" viewBox="0 0 1078.000000 1078.000000"
 preserveAspectRatio="xMidYMid meet">
<metadata>
Created by potrace 1.11, written by Peter Selinger 2001-2013
</metadata>
<g transform="translate(0.000000,1078.000000) scale(0.100000,-0.100000)"
fill="#000000" stroke="none">
<path d="M5640 10749 c-36 -4 -108 -12 -160 -18 -52 -5 -111 -15 -130 -21 -19
-6 -73 -15 -120 -20 -73 -9 -218 -50 -285 -81 -11 -5 -52 -18 -90 -28 -208
-56 -356 -111 -390 -145 -8 -7 -32 -16 -54 -20 -22 -3 -46 -12 -53 -19 -7 -6
-47 -30 -88 -51 -41 -21 -82 -44 -90 -51 -8 -8 -35 -23 -60 -34 -25 -12 -63
-36 -86 -54 -23 -17 -51 -39 -64 -47 -13 -8 -30 -22 -39 -30 -9 -8 -35 -28
-57 -45 -126 -93 -313 -279 -345 -343 -12 -23 -39 -57 -60 -74 -21 -17 -37
-33 -35 -36 3 -2 -31 -62 -74 -132 -83 -135 -151 -264 -193 -366 -35 -82 -83
-248 -91 -309 -4 -27 -11 -77 -17 -110 -6 -33 -12 -123 -14 -200 -2 -77 -6
-222 -9 -322 -4 -109 -3 -190 3 -200 5 -10 12 -35 15 -55 15 -98 69 -260 114
-348 10 -19 33 -82 51 -140 42 -138 111 -347 145 -437 30 -83 38 -127 35 -198
-1 -27 -1 -68 0 -91 2 -63 83 -298 149 -430 60 -119 100 -230 122 -336 7 -36
26 -80 51 -117 l40 -60 -24 -68 c-14 -37 -39 -106 -57 -153 -49 -129 -57 -160
-43 -168 7 -4 15 -50 19 -110 l7 -102 28 0 29 0 0 -130 0 -130 -30 0 c-29 0
-30 -2 -30 -45 l0 -45 -45 0 c-45 0 -45 0 -45 -35 0 -22 -5 -35 -13 -35 -7 0
-26 -20 -41 -45 -16 -25 -33 -45 -37 -45 -5 0 -9 -9 -9 -20 0 -11 -7 -20 -15
-20 -11 0 -15 -11 -15 -40 0 -39 -1 -40 -35 -40 -33 0 -35 -2 -35 -34 0 -19
-5 -36 -11 -38 -5 -2 -13 -22 -16 -46 -5 -38 -8 -42 -34 -42 -26 0 -29 -4 -29
-30 0 -16 -4 -30 -10 -30 -5 0 -10 -7 -10 -15 0 -11 -12 -15 -50 -15 l-50 0 0
-50 c0 -38 -4 -50 -15 -50 -8 0 -15 -6 -15 -13 0 -14 -35 -47 -50 -47 -6 0
-10 -7 -10 -15 0 -12 -14 -15 -64 -15 -55 0 -64 -3 -69 -20 -3 -14 -14 -20
-31 -20 -14 0 -26 -4 -26 -10 0 -5 -20 -10 -45 -10 -38 0 -45 -3 -45 -20 0
-11 -5 -20 -10 -20 -6 0 -24 -14 -40 -30 -16 -17 -34 -30 -40 -30 -5 0 -10 -7
-10 -15 0 -8 -9 -15 -20 -15 -16 0 -20 -7 -20 -30 0 -27 -3 -30 -30 -30 -20 0
-30 -5 -30 -15 0 -9 -9 -15 -25 -15 -16 0 -25 -6 -25 -15 0 -8 -7 -15 -15 -15
-9 0 -18 -7 -21 -15 -4 -8 -19 -15 -34 -15 -20 0 -31 -6 -35 -19 -3 -11 -19
-22 -35 -26 -17 -4 -30 -13 -30 -21 0 -8 -7 -14 -15 -14 -8 0 -15 -7 -15 -15
0 -11 -12 -15 -45 -15 -33 0 -45 -4 -45 -15 0 -8 -9 -15 -20 -15 -11 0 -20 -4
-20 -10 0 -5 -12 -13 -27 -16 -16 -4 -38 -18 -50 -31 -16 -17 -33 -23 -63 -23
-36 0 -40 -2 -40 -25 0 -14 -4 -25 -9 -25 -5 0 -13 -10 -17 -22 -8 -29 -38
-58 -59 -58 -8 0 -15 -6 -15 -14 0 -9 -17 -16 -45 -20 -38 -6 -45 -11 -45 -30
0 -24 -21 -36 -67 -36 -13 0 -23 -4 -23 -10 0 -5 -20 -10 -45 -10 -25 0 -45
-4 -45 -10 0 -6 -27 -10 -60 -10 -38 0 -60 -4 -60 -11 0 -20 -42 -49 -72 -49
-15 0 -28 -4 -28 -10 0 -5 -16 -10 -35 -10 -28 0 -35 -4 -35 -20 0 -16 -7 -20
-30 -20 -20 0 -30 -5 -30 -15 0 -8 -9 -15 -20 -15 -11 0 -20 -4 -20 -10 0 -5
-6 -10 -13 -10 -14 0 -81 -67 -146 -147 -24 -29 -47 -53 -51 -53 -5 0 -11 10
-13 23 -3 12 -4 -232 -3 -543 2 -546 3 -567 23 -621 23 -62 23 -122 0 -185
-13 -35 -15 -148 -15 -785 0 -409 2 -751 6 -759 4 -8 25 -17 47 -20 28 -4
6509 -6 7020 -3 22 0 292 0 600 -1 l559 -1 4 65 c2 36 5 66 6 67 2 2 15 4 29
5 22 2 27 7 27 30 0 15 -4 28 -10 28 -5 0 -10 19 -10 43 0 23 -3 79 -7 125 -5
71 -8 82 -24 82 -17 0 -19 8 -19 64 0 63 -1 65 -27 68 -22 2 -29 9 -31 31 -2
15 -7 27 -12 27 -4 0 -11 38 -15 85 -4 47 -11 85 -15 85 -4 0 -10 34 -13 77
-3 42 -10 79 -15 82 -5 3 -13 36 -16 74 -7 60 -10 68 -32 73 -18 5 -24 13 -24
35 0 19 -5 29 -15 29 -12 0 -15 17 -15 90 l0 90 -26 0 -27 0 7 270 c7 255 7
272 -12 323 -20 52 -24 71 -38 182 -7 60 -24 136 -59 270 -29 114 -33 133 -34
158 -1 10 -23 41 -51 68 -27 27 -50 53 -50 57 0 4 -47 53 -104 110 -57 56
-115 120 -130 141 -30 42 -71 153 -80 215 -4 21 -8 41 -10 45 -4 6 -30 129
-41 191 -7 41 -21 53 -121 105 -41 21 -94 58 -118 81 -24 25 -81 63 -137 91
-91 46 -209 144 -209 174 0 6 9 21 19 33 48 52 125 154 143 191 11 22 24 42
28 45 12 8 135 242 166 315 21 50 36 106 40 148 3 22 11 63 19 90 25 86 30
180 28 572 -2 282 1 394 10 435 8 30 43 129 79 220 92 231 155 408 163 455 13
83 89 287 151 406 120 233 274 549 274 562 0 7 7 22 15 33 13 18 14 18 8 -5
-4 -17 -3 -22 5 -17 7 4 12 15 12 24 0 9 13 44 30 77 43 87 77 180 95 260 9
39 23 75 31 82 14 10 14 14 -1 37 -13 20 -15 29 -6 40 13 16 46 163 71 326 15
91 18 159 16 325 -2 116 -6 219 -8 230 -3 11 -9 43 -13 70 -28 199 -76 367
-150 522 -37 78 -110 203 -138 238 -4 6 -28 37 -53 70 -25 33 -76 101 -114
151 -64 85 -121 144 -139 144 -4 0 -27 20 -52 44 -144 142 -333 269 -594 398
-167 83 -367 145 -495 154 -111 7 -203 21 -230 34 -18 9 -84 17 -195 25 -163
11 -165 12 -385 72 -97 27 -262 50 -365 52 -132 3 -195 9 -209 19 -33 27 -281
39 -426 21z m3414 -3138 c3 -5 -1 -14 -8 -20 -12 -10 -13 -8 -9 8 6 23 9 25
17 12z"/>
<path d="M5138 10733 c7 -3 16 -2 19 1 4 3 -2 6 -13 5 -11 0 -14 -3 -6 -6z"/>
<path d="M9045 7339 c-4 -6 -5 -12 -2 -15 2 -3 7 2 10 11 7 17 1 20 -8 4z"/>
<path d="M8941 7294 c0 -11 3 -14 6 -6 3 7 2 16 -1 19 -3 4 -6 -2 -5 -13z"/>
<path d="M8942 7240 c0 -19 2 -27 5 -17 2 9 2 25 0 35 -3 9 -5 1 -5 -18z"/>
<path d="M8945 7180 c3 -5 8 -10 11 -10 2 0 4 5 4 10 0 6 -5 10 -11 10 -5 0
-7 -4 -4 -10z"/>
</g>
</svg>
